<svg width="390" height="844" viewBox="0 0 390 844" fill="none" xmlns="http://www.w3.org/2000/svg">
<rect x="0.5" y="0.5" width="389" height="843" fill="white"/>
<rect x="0.5" y="0.5" width="389" height="843" stroke="#0560FA"/>
<rect width="235" height="97.5564" fill="white"/>
<g clip-path="url(#clip0_1_1097)">
<path d="M178.233 417.562H169.273V438.172H158.039V383H178.288C184.724 383 189.689 384.443 193.184 387.3C196.679 390.184 198.426 394.234 198.426 399.477C198.426 403.194 197.622 406.3 196.013 408.769C194.404 411.266 191.963 413.235 188.69 414.705L200.479 436.979V438.144H188.746L178.233 417.562ZM169.301 408.464H178.372C181.201 408.464 183.364 407.743 184.918 406.3C186.471 404.858 187.248 402.889 187.248 400.364C187.248 397.785 186.527 395.76 185.057 394.29C183.586 392.82 181.367 392.071 178.344 392.071H169.329V408.464H169.301Z" fill="#0560FA"/>
<path d="M224.944 438.255C219.008 438.255 214.154 436.425 210.437 432.791C206.692 429.157 204.834 424.303 204.834 418.228V417.174C204.834 413.097 205.611 409.463 207.192 406.245C208.773 403.028 210.992 400.559 213.877 398.839C216.761 397.092 220.062 396.232 223.752 396.232C229.299 396.232 233.654 397.979 236.844 401.474C240.034 404.969 241.615 409.934 241.615 416.342V420.752H215.818C216.179 423.388 217.233 425.523 218.981 427.104C220.728 428.713 222.975 429.49 225.665 429.49C229.826 429.49 233.099 427.992 235.429 424.969L240.755 430.932C239.119 433.235 236.927 435.01 234.153 436.314C231.38 437.617 228.301 438.255 224.944 438.255ZM223.696 404.969C221.56 404.969 219.813 405.69 218.481 407.161C217.15 408.603 216.29 410.683 215.929 413.402H230.991V412.542C230.936 410.129 230.298 408.27 229.05 406.966C227.774 405.635 225.998 404.969 223.696 404.969Z" fill="#0560FA"/>
<path d="M246.053 416.952C246.053 410.628 247.468 405.607 250.297 401.862C253.127 398.118 257.01 396.259 261.92 396.259C265.858 396.259 269.132 397.729 271.683 400.67V383H282.529V438.172H272.738L272.238 433.207C269.548 436.563 266.08 438.255 261.836 438.255C257.065 438.255 253.237 436.369 250.353 432.624C247.496 428.879 246.053 423.665 246.053 416.952ZM256.871 417.756C256.871 421.557 257.537 424.469 258.868 426.494C260.2 428.519 262.114 429.545 264.638 429.545C267.994 429.545 270.352 428.131 271.711 425.301V409.296C270.352 406.467 268.022 405.052 264.693 405.052C259.479 405.052 256.871 409.296 256.871 417.756Z" fill="#0560FA"/>
<path d="M290.878 388.576C290.878 386.967 291.433 385.608 292.515 384.581C293.597 383.527 295.067 383 296.953 383C298.812 383 300.282 383.527 301.363 384.581C302.473 385.635 303 386.967 303 388.576C303 390.212 302.445 391.571 301.336 392.625C300.226 393.68 298.756 394.207 296.925 394.207C295.095 394.207 293.624 393.68 292.515 392.625C291.433 391.571 290.878 390.24 290.878 388.576Z" fill="#EC8000"/>
<path d="M302.362 396.259H291.516V438.172H302.362V396.259Z" fill="#0560FA"/>
<path d="M222.587 455.536C221.422 455.536 220.368 455.259 219.424 454.676C218.481 454.094 217.76 453.289 217.233 452.291C216.706 451.265 216.456 450.127 216.456 448.851V448.297C216.456 446.993 216.706 445.8 217.233 444.746C217.732 443.692 218.454 442.86 219.369 442.25C220.284 441.639 221.255 441.334 222.337 441.334C224.001 441.334 225.305 441.889 226.304 443.026C227.302 444.164 227.774 445.717 227.774 447.686V448.546H218.01V448.824C218.01 450.377 218.454 451.681 219.341 452.707C220.229 453.733 221.338 454.26 222.698 454.26C223.502 454.26 224.223 454.122 224.833 453.816C225.444 453.511 226.026 453.04 226.525 452.402L227.469 453.123C226.331 454.732 224.695 455.536 222.587 455.536ZM222.309 442.638C221.172 442.638 220.201 443.054 219.424 443.886C218.648 444.718 218.176 445.856 218.01 447.242H226.22V447.076C226.165 445.772 225.804 444.691 225.083 443.858C224.39 443.054 223.446 442.638 222.309 442.638Z" fill="#0560FA"/>
<path d="M234.986 447.159L238.675 441.612H240.478L235.846 448.324L240.7 455.287H238.897L234.986 449.489L231.075 455.287H229.299L234.126 448.324L229.493 441.612H231.269L234.986 447.159Z" fill="#0560FA"/>
<path d="M254.291 448.574C254.291 450.71 253.82 452.402 252.877 453.65C251.934 454.898 250.658 455.536 249.077 455.536C247.19 455.536 245.776 454.871 244.777 453.567V460.557H243.279V441.584H244.694L244.777 443.526C245.776 442.055 247.19 441.334 249.077 441.334C250.713 441.334 251.989 441.944 252.932 443.193C253.875 444.441 254.319 446.161 254.319 448.352V448.574H254.291ZM252.766 448.324C252.766 446.577 252.405 445.19 251.684 444.191C250.963 443.165 249.964 442.666 248.688 442.666C247.773 442.666 246.969 442.888 246.303 443.331C245.637 443.775 245.138 444.441 244.777 445.273V451.847C245.138 452.624 245.665 453.234 246.331 453.65C246.996 454.066 247.801 454.26 248.716 454.26C249.992 454.26 250.991 453.761 251.684 452.735C252.433 451.736 252.766 450.238 252.766 448.324Z" fill="#0560FA"/>
<path d="M263.972 442.888C263.639 442.832 263.306 442.804 262.946 442.804C262.003 442.804 261.198 443.082 260.56 443.609C259.922 444.136 259.451 444.912 259.173 445.911V455.314H257.676V441.612H259.146L259.173 443.775C259.978 442.166 261.254 441.334 263.029 441.334C263.445 441.334 263.778 441.39 264.028 441.501L263.972 442.888Z" fill="#0560FA"/>
<path d="M271.434 455.536C270.269 455.536 269.215 455.259 268.272 454.676C267.329 454.094 266.607 453.289 266.08 452.291C265.553 451.265 265.304 450.127 265.304 448.851V448.297C265.304 446.993 265.553 445.8 266.08 444.746C266.58 443.692 267.301 442.86 268.216 442.25C269.132 441.639 270.102 441.334 271.184 441.334C272.848 441.334 274.152 441.889 275.151 443.026C276.149 444.164 276.621 445.717 276.621 447.686V448.546H266.857V448.824C266.857 450.377 267.301 451.681 268.188 452.707C269.076 453.733 270.186 454.26 271.545 454.26C272.349 454.26 273.07 454.122 273.681 453.816C274.291 453.511 274.873 453.04 275.373 452.402L276.316 453.123C275.179 454.732 273.542 455.536 271.434 455.536ZM271.156 442.638C270.019 442.638 269.048 443.054 268.272 443.886C267.495 444.718 267.023 445.856 266.857 447.242H275.068V447.076C275.012 445.772 274.651 444.691 273.93 443.858C273.237 443.054 272.294 442.638 271.156 442.638Z" fill="#0560FA"/>
<path d="M287.716 451.819C287.716 451.07 287.411 450.46 286.801 450.016C286.191 449.573 285.275 449.212 284.083 448.935C282.862 448.685 281.919 448.38 281.253 448.047C280.588 447.714 280.088 447.298 279.755 446.826C279.422 446.355 279.256 445.772 279.256 445.079C279.256 443.997 279.7 443.109 280.615 442.388C281.531 441.695 282.668 441.334 284.083 441.334C285.608 441.334 286.829 441.723 287.772 442.471C288.715 443.22 289.159 444.219 289.159 445.44H287.633C287.633 444.635 287.3 443.969 286.634 443.442C285.969 442.915 285.109 442.638 284.11 442.638C283.112 442.638 282.307 442.86 281.725 443.304C281.115 443.747 280.809 444.33 280.809 445.023C280.809 445.717 281.059 446.244 281.558 446.605C282.058 446.993 282.973 447.326 284.304 447.631C285.636 447.936 286.634 448.269 287.3 448.629C287.966 448.99 288.465 449.406 288.77 449.905C289.103 450.405 289.242 451.015 289.242 451.708C289.242 452.873 288.77 453.789 287.855 454.482C286.912 455.176 285.691 455.509 284.193 455.509C282.585 455.509 281.309 455.12 280.31 454.344C279.312 453.567 278.812 452.596 278.812 451.403H280.338C280.393 452.291 280.782 452.984 281.447 453.484C282.141 453.983 283.056 454.233 284.166 454.233C285.22 454.233 286.08 454.011 286.718 453.539C287.411 453.095 287.716 452.513 287.716 451.819Z" fill="#0560FA"/>
<path d="M300.864 451.819C300.864 451.07 300.559 450.46 299.949 450.016C299.339 449.573 298.423 449.212 297.23 448.935C296.01 448.685 295.067 448.38 294.401 448.047C293.735 447.714 293.236 447.298 292.903 446.826C292.57 446.355 292.404 445.772 292.404 445.079C292.404 443.997 292.848 443.109 293.763 442.388C294.679 441.695 295.816 441.334 297.23 441.334C298.756 441.334 299.977 441.723 300.92 442.471C301.863 443.22 302.307 444.219 302.307 445.44H300.781C300.781 444.635 300.448 443.969 299.782 443.442C299.117 442.915 298.257 442.638 297.258 442.638C296.26 442.638 295.455 442.86 294.873 443.304C294.262 443.747 293.957 444.33 293.957 445.023C293.957 445.717 294.207 446.244 294.706 446.605C295.206 446.993 296.121 447.326 297.452 447.631C298.784 447.936 299.782 448.269 300.448 448.629C301.114 448.99 301.613 449.406 301.918 449.905C302.251 450.405 302.39 451.015 302.39 451.708C302.39 452.873 301.918 453.789 301.003 454.482C300.06 455.176 298.839 455.509 297.341 455.509C295.733 455.509 294.457 455.12 293.458 454.344C292.46 453.567 291.96 452.596 291.96 451.403H293.486C293.541 452.291 293.93 452.984 294.595 453.484C295.289 453.983 296.204 454.233 297.314 454.233C298.368 454.233 299.228 454.011 299.866 453.539C300.531 453.095 300.864 452.513 300.864 451.819Z" fill="#0560FA"/>
<path d="M150.689 412.126V426.605L138.151 419.366L128.97 414.068L125.613 412.126L113.075 404.886L107.25 401.53L100.538 397.646L88 390.407L90.4687 388.992L100.538 383.167L110.607 388.992L113.075 390.407L125.613 397.646L132.326 401.53L138.151 404.886L150.689 412.126Z" fill="#0560FA"/>
<path d="M150.689 426.605L138.151 433.817L128.97 439.115L125.613 441.057L122.257 439.115L113.075 433.817L125.613 426.605V426.577L150.689 412.126V426.605Z" fill="#0045AA"/>
<path d="M113.075 419.366L100.538 426.578V455.536L93.8251 451.653L88 448.297V404.886L100.538 412.126L103.894 414.068L113.075 419.366Z" fill="#EC8000"/>
<path d="M113.075 448.297L107.25 451.653L100.538 455.537V441.057L113.075 448.297Z" fill="#B75F00"/>
</g>
<defs>
<clipPath id="clip0_1_1097">
<rect width="215" height="77.5564" fill="white" transform="translate(88 383)"/>
</clipPath>
</defs>
</svg>
